Coordinates
version=1
nRows=10
nColumns=50
inDegrees=no

Units are S.I. units (second, meters, Newtons, ...)
If the header above contains a line with 'inDegrees', this indicates whether rotational values are in degrees (yes) or radians (no).

endheader
time	pelvis_tilt	pelvis_list	pelvis_rotation	pelvis_tx	pelvis_ty	pelvis_tz	hip_flexion_r	hip_adduction_r	hip_rotation_r	knee_angle_r	ankle_angle_r	subtalar_angle_r	mtp_angle_r	hip_flexion_l	hip_adduction_l	hip_rotation_l	knee_angle_l	ankle_angle_l	subtalar_angle_l	mtp_angle_l	lumbar_bending	lumbar_extension	lumbar_twist	thorax_bending	thorax_extension	thorax_twist	head_bending	head_extension	head_twist	scapula_abduction_r	scapula_elevation_r	scapula_upward_rot_r	shoulder_r_x	shoulder_r_y	shoulder_r_z	elbow_flexion_r	pro_sup_r	wrist_flexion_r	wrist_deviation_r	scapula_abduction_l	scapula_elevation_l	scapula_upward_rot_l	shoulder_l_x	shoulder_l_y	shoulder_l_z	elbow_flexion_l	pro_sup_l	wrist_flexion_l	wrist_deviation_l
0	-0.267043	0.32154	-1.25558	-0.0357264	0.866898	0.028825	0.472588	0.0899857	-0.301383	0.823155	0.306649	0.00143207	0.110802	0.671776	-0.225391	0.156251	1.25063	0.0738593	0.318268	0.124445	0.25877	-0.316641	-0.038795	-0.076923	-0.103608	0.0810005	-0.035728	0.482515	0.155044	-1.08663	0.092939	0.0574398	-0.237812	0.199708	0.100926	1.14651	0.678092	0.339902	-0.0690266	-1.11099	0.00546467	-0.192293	0.450214	-0.109487	-0.118582	1.35982	0.364395	-0.0608164	0.222465
0.0082176	-0.244775	0.276875	-1.317	-0.0277229	0.864915	0.2187	0.444424	0.107939	-0.223563	0.867781	0.30876	-0.000689197	0.108245	0.693489	-0.250199	0.101275	1.29537	0.108957	0.301981	0.109653	0.217901	-0.307214	-0.0226879	-0.0895817	-0.0917405	0.11561	-0.0138393	0.442904	0.148078	-1.10794	0.0829566	0.118779	-0.198889	0.181925	0.013909	1.17936	0.633601	0.337126	-0.0218828	-1.16943	-0.00418987	-0.14641	0.426065	-0.0898658	-0.107081	1.32242	0.329292	-0.0255966	0.211894
0.0164352	-0.22236	0.231661	-1.37863	-0.019653	0.863033	0.408571	0.417975	0.125356	-0.145962	0.913246	0.310611	-0.00288805	0.105835	0.711887	-0.275822	0.0448506	1.33831	0.145609	0.285834	0.0962624	0.177146	-0.299493	-0.00686509	-0.102432	-0.0779816	0.150001	0.00823765	0.402482	0.140444	-1.12889	0.0730065	0.178488	-0.160594	0.159707	-0.0752088	1.21302	0.590166	0.334129	0.0235859	-1.22693	-0.0138828	-0.100526	0.404003	-0.0701509	-0.096092	1.28728	0.293551	0.00858899	0.20213
0.0246528	-0.199731	0.185473	-1.43892	-0.01132	0.861379	0.598246	0.396096	0.140225	-0.0709646	0.960474	0.311533	-0.00537913	0.103701	0.72347	-0.302708	-0.0133802	1.37756	0.182434	0.269534	0.0845772	0.136424	-0.294026	0.00730708	-0.115663	-0.0620744	0.18299	0.0319671	0.361578	0.130352	-1.14813	0.0626112	0.237442	-0.122612	0.13026	-0.170905	1.24863	0.551009	0.330798	0.0644064	-1.28136	-0.0231776	-0.0536177	0.387026	-0.0493338	-0.085693	1.25713	0.256071	0.0416899	0.193429
0.0328704	-0.176827	0.13808	-1.49772	-0.00250515	0.860046	0.787451	0.381613	0.151337	6.28988e-05	1.00995	0.310628	-0.00886839	0.102235	0.72479	-0.330236	-0.0730065	1.4121	0.219776	0.253075	0.0746043	0.0961265	-0.291435	0.0196792	-0.129836	-0.044148	0.213578	0.0583935	0.320741	0.115442	-1.16402	0.0514164	0.296062	-0.0860702	0.092183	-0.275497	1.28472	0.517272	0.33107	0.100283	-1.3313	-0.032336	-0.00471235	0.378779	-0.0296426	-0.0775369	1.23379	0.219939	0.0714083	0.187913
0.041088	-0.153917	0.0889504	-1.55308	0.00702851	0.859071	0.975731	0.376506	0.158178	0.0640907	1.06098	0.307117	-0.0149544	0.102108	0.713837	-0.356848	-0.132996	1.44232	0.258282	0.236815	0.0660338	0.0568721	-0.292803	0.0288827	-0.144356	-0.0242548	0.240194	0.0877467	0.281211	0.0954708	-1.17512	0.0392383	0.354289	-0.0545515	0.0455076	-0.388575	1.32018	0.489603	0.336287	0.130076	-1.37524	-0.0416205	0.0461038	0.384722	-0.0138388	-0.0741582	1.21752	0.188112	0.095181	0.186154
0.0493056	-0.130791	0.0377781	-1.60465	0.0175225	0.858416	1.16258	0.380469	0.160143	0.120357	1.11185	0.301196	-0.0237605	0.103491	0.690784	-0.381105	-0.192001	1.46863	0.294413	0.221548	0.0582602	0.0188702	-0.299356	0.0346452	-0.15839	-0.00149289	0.261663	0.119757	0.243053	0.0711013	-1.1802	0.0258964	0.413684	-0.0291912	-0.00728985	-0.509654	1.35433	0.467932	0.346749	0.152666	-1.41243	-0.0513236	0.0988802	0.411829	-0.00621088	-0.0804955	1.20986	0.16316	0.110285	0.188485
0.0575232	-0.107421	-0.0153871	-1.65145	0.0292248	0.858015	1.34733	0.390858	0.157262	0.168314	1.15972	0.294043	-0.0337503	0.106034	0.657669	-0.400754	-0.247695	1.48908	0.325843	0.208581	0.0521425	-0.017757	-0.311309	0.0359971	-0.170791	0.0230986	0.276832	0.153393	0.207385	0.047524	-1.17863	0.011487	0.47571	-0.00930786	-0.0631779	-0.633834	1.38523	0.451594	0.360946	0.167679	-1.44269	-0.0619462	0.153255	0.459824	-0.00485895	-0.0954325	1.20979	0.146097	0.114623	0.192399
0.0657408	-0.0829947	-0.0697765	-1.69449	0.0423877	0.857709	1.52931	0.403783	0.14883	0.209347	1.20209	0.287137	-0.0437556	0.109138	0.617889	-0.414505	-0.299134	1.50293	0.351288	0.199164	0.0483005	-0.0536171	-0.328125	0.0329965	-0.180081	0.0494067	0.28522	0.186974	0.174333	0.0300477	-1.17073	-0.00355546	0.540808	0.00583053	-0.119946	-0.757206	1.41284	0.439279	0.37692	0.17683	-1.46623	-0.0740431	0.208636	0.529446	-0.00980539	-0.119951	1.21607	0.137465	0.106349	0.195277
0.0739584	-0.0569518	-0.124156	-1.73495	0.0571636	0.857276	1.70773	0.415913	0.134783	0.245241	1.23866	0.279262	-0.0539526	0.113239	0.575731	-0.421779	-0.346047	1.51007	0.370366	0.192739	0.0471314	-0.0889647	-0.348898	0.0258141	-0.186371	0.0771894	0.287495	0.219591	0.14481	0.022318	-1.15797	-0.0188602	0.607632	0.0171012	-0.174974	-0.874594	1.43676	0.431633	0.391272	0.17908	-1.48355	-0.0874737	0.264367	0.614859	-0.015325	-0.150388	1.22803	0.136175	0.0886631	0.196407
